<svg width="32" height="32" viewBox="0 0 32 32" fill="none" xmlns="http://www.w3.org/2000/svg">
<path d="M20.077 17.008L20.603 13.852H17.534V11.836C17.534 10.959 17.973 10.17 19.288 10.17H20.69V7.45204C20.69 7.45204 19.463 7.27704 18.236 7.27704C15.781 7.27704 14.116 8.76704 14.116 11.485V13.852H11.31V17.008H14.115V24.636C14.641 24.723 15.255 24.811 15.781 24.811C16.395 24.811 16.921 24.723 17.447 24.636V17.008H20.077V17.008Z" stroke="#5022ED" stroke-width="1.5" stroke-linecap="round" stroke-linejoin="round"/>
<path d="M16.044 31.386C24.517 31.386 31.386 24.517 31.386 16.044C31.386 7.57001 24.517 0.700012 16.044 0.700012C7.57 0.701012 0.7 7.57101 0.7 16.044C0.7 24.517 7.57 31.386 16.043 31.386H16.044Z" stroke="#5022ED" stroke-width="1.5" stroke-linecap="round" stroke-linejoin="round"/>
</svg>
