<svg width="32" height="32" viewBox="0 0 32 32" fill="none" xmlns="http://www.w3.org/2000/svg">
<path d="M19.112 9.03003H12.8C10.696 9.03003 8.942 10.784 8.942 12.888V19.2C8.942 21.304 10.696 23.058 12.8 23.058H19.112C21.216 23.058 22.97 21.304 22.97 19.2V12.888C23.058 10.696 21.304 9.03003 19.112 9.03003V9.03003Z" stroke="#5022ED" stroke-width="1.5" stroke-linecap="round" stroke-linejoin="round"/>
<path d="M16.044 18.762C15.6742 18.7668 15.3071 18.6975 14.9645 18.5582C14.6219 18.4189 14.3106 18.2124 14.0491 17.9509C13.7875 17.6894 13.581 17.3781 13.4417 17.0355C13.3024 16.6929 13.2332 16.3258 13.238 15.956C13.2333 15.5862 13.3027 15.2193 13.442 14.8768C13.5814 14.5343 13.7879 14.2231 14.0494 13.9617C14.311 13.7003 14.6222 13.4939 14.9647 13.3546C15.3073 13.2154 15.6743 13.1462 16.044 13.151C16.4137 13.1463 16.7805 13.2156 17.123 13.3549C17.4654 13.4942 17.7765 13.7007 18.0379 13.9621C18.2993 14.2235 18.5058 14.5346 18.6451 14.877C18.7844 15.2195 18.8537 15.5863 18.849 15.956C18.849 17.534 17.534 18.762 16.044 18.762ZM19.726 11.748C19.638 11.748 19.462 11.836 19.375 11.923C19.375 12.011 19.287 12.099 19.287 12.274C19.287 12.362 19.375 12.537 19.462 12.624C19.55 12.712 19.638 12.8 19.813 12.8C19.901 12.8 20.076 12.712 20.163 12.625C20.251 12.537 20.339 12.449 20.339 12.274C20.339 12.186 20.252 12.011 20.164 11.924C19.988 11.836 19.901 11.748 19.725 11.748H19.726Z" stroke="#5022ED" stroke-width="1.5" stroke-linecap="round" stroke-linejoin="round"/>
<path d="M16.044 31.386C24.517 31.386 31.386 24.517 31.386 16.044C31.386 7.57001 24.517 0.700012 16.044 0.700012C7.57 0.701012 0.700001 7.57101 0.700001 16.044C0.700001 24.517 7.57 31.386 16.043 31.386H16.044Z" stroke="#5022ED" stroke-width="1.5" stroke-linecap="round" stroke-linejoin="round"/>
</svg>
