<svg width="32" height="32" viewBox="0 0 32 32" fill="none" xmlns="http://www.w3.org/2000/svg">
<path d="M12.975 23.058V12.537H9.03V23.057H12.975V23.058ZM10.959 11.66C12.274 11.66 13.063 10.784 13.063 9.732C13.063 8.592 12.273 7.802 10.959 7.802C9.644 7.802 8.854 8.679 8.854 9.732C8.854 10.784 9.731 11.66 10.959 11.66ZM17.008 14.027V12.537H13.238C13.326 13.501 13.238 23.057 13.238 23.057H17.008V18.411C17.008 18.148 17.008 17.797 17.096 17.621C17.359 17.008 17.885 16.395 18.849 16.395C20.077 16.395 20.603 17.359 20.603 18.674V23.058H24.285V17.183C24.285 14.027 22.268 12.273 20.077 12.273C18.411 12.273 17.709 13.063 17.183 13.677L17.008 14.027V14.027Z" stroke="#5022ED" stroke-width="1.5" stroke-linecap="round" stroke-linejoin="round"/>
<path d="M16.044 31.386C24.517 31.386 31.386 24.517 31.386 16.044C31.386 7.57001 24.517 0.700012 16.044 0.700012C7.57 0.701012 0.699997 7.57101 0.699997 16.044C0.699997 24.517 7.57 31.386 16.043 31.386H16.044Z" stroke="#5022ED" stroke-width="1.5" stroke-linecap="round" stroke-linejoin="round"/>
</svg>
