<svg width="32" height="32" viewBox="0 0 32 32" fill="none" xmlns="http://www.w3.org/2000/svg">
<path d="M9.38 11.573C11.134 13.413 13.589 14.466 16.131 14.553C16.481 14.553 16.745 14.203 16.657 13.853C16.307 12.362 17.183 11.31 18.06 10.783C18.937 10.258 20.427 10.17 21.48 11.31C21.83 11.66 22.882 11.66 23.495 11.573C23.233 12.011 22.882 12.537 22.531 12.713C22.531 12.713 22.268 12.888 22.268 13.151C22.356 15.518 21.479 17.973 19.813 19.726C18.148 21.48 15.781 22.444 13.238 22.444C12.2213 22.4476 11.2121 22.2694 10.258 21.918C11.397 21.743 13.15 20.69 14.29 19.551C14.378 19.726 8.24 16.307 9.38 11.573V11.573Z" stroke="#5022ED" stroke-width="1.5" stroke-linecap="round" stroke-linejoin="round"/>
<path d="M16.044 31.386C24.517 31.386 31.386 24.517 31.386 16.044C31.386 7.57001 24.517 0.700012 16.044 0.700012C7.57 0.701012 0.700001 7.57101 0.700001 16.044C0.700001 24.517 7.57 31.386 16.043 31.386H16.044Z" stroke="#5022ED" stroke-width="1.5" stroke-linecap="round" stroke-linejoin="round"/>
</svg>
